<svg xmlns="http://www.w3.org/2000/svg" fill="none" viewBox="-0.75 -0.75 16 16" stroke="currentColor" aria-hidden="true" id="Ellipsis-Horizontal--Streamline-Heroicons-Outline.svg" height="16" width="16"><desc>Ellipsis Horizontal Streamline Icon: https://streamlinehq.com</desc><path stroke-linecap="round" stroke-linejoin="round" d="M2.2764999999999995 7.25C2.2764999999999995 7.796952083333333 1.6844166666666665 8.138789583333333 1.21075 7.865283333333332C0.9908937499999999 7.738408333333333 0.8554999999999999 7.503810416666666 0.8554999999999999 7.25C0.8554999999999999 6.703047916666666 1.4475833333333332 6.361210416666666 1.92125 6.634716666666667C2.1411062499999995 6.761591666666666 2.2764999999999995 6.996189583333333 2.2764999999999995 7.25ZM7.9605 7.25C7.9605 7.796952083333333 7.368416666666666 8.138789583333333 6.89475 7.865283333333332C6.67489375 7.738408333333333 6.539499999999999 7.503810416666666 6.539499999999999 7.25C6.539499999999999 6.703047916666666 7.131583333333333 6.361210416666666 7.605249999999999 6.634716666666667C7.825106249999999 6.761591666666666 7.9605 6.996189583333333 7.9605 7.25ZM13.644499999999999 7.25C13.644499999999999 7.796952083333333 13.052416666666666 8.138789583333333 12.57875 7.865283333333332C12.358893749999998 7.738408333333333 12.2235 7.503810416666666 12.2235 7.25C12.2235 6.703047916666666 12.815583333333333 6.361210416666666 13.28925 6.634716666666667C13.509106249999999 6.761591666666666 13.644499999999999 6.996189583333333 13.644499999999999 7.25Z" stroke-width="1.5"></path></svg>